<mxfile host="Electron" modified="2024-03-04T07:53:50.227Z" agent="Mozilla/5.0 (X11; Linux x86_64) AppleWebKit/537.36 (KHTML, like Gecko) draw.io/23.1.5 Chrome/120.0.6099.109 Electron/28.1.0 Safari/537.36" etag="KVn3yQMQOXdiZC5JB9_S" version="23.1.5" type="device">
  <diagram name="Page-1" id="8tiRhkT6-rVgXUH-CiR3">
    <mxGraphModel dx="778" dy="482" grid="1" gridSize="10" guides="1" tooltips="1" connect="1" arrows="1" fold="1" page="1" pageScale="1" pageWidth="1654" pageHeight="1169" math="0" shadow="0">
      <root>
        <mxCell id="0" />
        <mxCell id="1" parent="0" />
        <mxCell id="hjttsfF6x0lAWdpbckgn-1" value="House Owner" style="shape=umlActor;verticalLabelPosition=bottom;verticalAlign=top;html=1;outlineConnect=0;" vertex="1" parent="1">
          <mxGeometry x="80" y="160" width="40" height="80" as="geometry" />
        </mxCell>
        <mxCell id="hjttsfF6x0lAWdpbckgn-3" value="House Owner" style="shape=umlActor;verticalLabelPosition=bottom;verticalAlign=top;html=1;outlineConnect=0;" vertex="1" parent="1">
          <mxGeometry x="90" y="290" width="40" height="80" as="geometry" />
        </mxCell>
        <mxCell id="hjttsfF6x0lAWdpbckgn-4" value="House Owner" style="shape=umlActor;verticalLabelPosition=bottom;verticalAlign=top;html=1;outlineConnect=0;" vertex="1" parent="1">
          <mxGeometry x="100" y="300" width="40" height="80" as="geometry" />
        </mxCell>
        <mxCell id="hjttsfF6x0lAWdpbckgn-5" value="House Owner" style="shape=umlActor;verticalLabelPosition=bottom;verticalAlign=top;html=1;outlineConnect=0;" vertex="1" parent="1">
          <mxGeometry x="110" y="310" width="40" height="80" as="geometry" />
        </mxCell>
        <mxCell id="hjttsfF6x0lAWdpbckgn-6" value="House Owner" style="shape=umlActor;verticalLabelPosition=bottom;verticalAlign=top;html=1;outlineConnect=0;" vertex="1" parent="1">
          <mxGeometry x="120" y="320" width="40" height="80" as="geometry" />
        </mxCell>
        <mxCell id="hjttsfF6x0lAWdpbckgn-7" value="House Owner" style="shape=umlActor;verticalLabelPosition=bottom;verticalAlign=top;html=1;outlineConnect=0;" vertex="1" parent="1">
          <mxGeometry x="130" y="330" width="40" height="80" as="geometry" />
        </mxCell>
        <mxCell id="hjttsfF6x0lAWdpbckgn-10" style="edgeStyle=orthogonalEdgeStyle;rounded=0;orthogonalLoop=1;jettySize=auto;html=1;" edge="1" parent="1" source="hjttsfF6x0lAWdpbckgn-8" target="hjttsfF6x0lAWdpbckgn-9">
          <mxGeometry relative="1" as="geometry" />
        </mxCell>
        <mxCell id="hjttsfF6x0lAWdpbckgn-8" value="House Owner" style="shape=umlActor;verticalLabelPosition=bottom;verticalAlign=top;html=1;outlineConnect=0;" vertex="1" parent="1">
          <mxGeometry x="140" y="340" width="40" height="80" as="geometry" />
        </mxCell>
        <mxCell id="hjttsfF6x0lAWdpbckgn-9" value="AirBnb" style="image;points=[];aspect=fixed;html=1;align=center;shadow=0;dashed=0;image=img/lib/allied_telesis/buildings/Large_Building.svg;" vertex="1" parent="1">
          <mxGeometry x="390" y="275" width="75" height="75" as="geometry" />
        </mxCell>
        <mxCell id="hjttsfF6x0lAWdpbckgn-11" value="Consumer" style="shape=umlActor;verticalLabelPosition=bottom;verticalAlign=top;html=1;outlineConnect=0;" vertex="1" parent="1">
          <mxGeometry x="720" y="330" width="40" height="80" as="geometry" />
        </mxCell>
        <mxCell id="hjttsfF6x0lAWdpbckgn-12" value="Consumer" style="shape=umlActor;verticalLabelPosition=bottom;verticalAlign=top;html=1;outlineConnect=0;" vertex="1" parent="1">
          <mxGeometry x="730" y="340" width="40" height="80" as="geometry" />
        </mxCell>
        <mxCell id="hjttsfF6x0lAWdpbckgn-13" value="Consumer" style="shape=umlActor;verticalLabelPosition=bottom;verticalAlign=top;html=1;outlineConnect=0;" vertex="1" parent="1">
          <mxGeometry x="740" y="350" width="40" height="80" as="geometry" />
        </mxCell>
        <mxCell id="hjttsfF6x0lAWdpbckgn-14" value="Consumer" style="shape=umlActor;verticalLabelPosition=bottom;verticalAlign=top;html=1;outlineConnect=0;" vertex="1" parent="1">
          <mxGeometry x="750" y="360" width="40" height="80" as="geometry" />
        </mxCell>
        <mxCell id="hjttsfF6x0lAWdpbckgn-15" value="Consumer" style="shape=umlActor;verticalLabelPosition=bottom;verticalAlign=top;html=1;outlineConnect=0;" vertex="1" parent="1">
          <mxGeometry x="760" y="370" width="40" height="80" as="geometry" />
        </mxCell>
        <mxCell id="hjttsfF6x0lAWdpbckgn-16" value="Consumer" style="shape=umlActor;verticalLabelPosition=bottom;verticalAlign=top;html=1;outlineConnect=0;" vertex="1" parent="1">
          <mxGeometry x="770" y="380" width="40" height="80" as="geometry" />
        </mxCell>
        <mxCell id="hjttsfF6x0lAWdpbckgn-17" value="Consumer" style="shape=umlActor;verticalLabelPosition=bottom;verticalAlign=top;html=1;outlineConnect=0;" vertex="1" parent="1">
          <mxGeometry x="780" y="390" width="40" height="80" as="geometry" />
        </mxCell>
        <mxCell id="hjttsfF6x0lAWdpbckgn-18" value="Consumer" style="shape=umlActor;verticalLabelPosition=bottom;verticalAlign=top;html=1;outlineConnect=0;" vertex="1" parent="1">
          <mxGeometry x="790" y="400" width="40" height="80" as="geometry" />
        </mxCell>
        <mxCell id="hjttsfF6x0lAWdpbckgn-19" style="edgeStyle=orthogonalEdgeStyle;rounded=0;orthogonalLoop=1;jettySize=auto;html=1;entryX=0.97;entryY=0.575;entryDx=0;entryDy=0;entryPerimeter=0;" edge="1" parent="1" source="hjttsfF6x0lAWdpbckgn-11" target="hjttsfF6x0lAWdpbckgn-9">
          <mxGeometry relative="1" as="geometry" />
        </mxCell>
        <mxCell id="hjttsfF6x0lAWdpbckgn-20" value="people who wants to rent their rooms/houses daily" style="text;html=1;align=center;verticalAlign=middle;whiteSpace=wrap;rounded=0;" vertex="1" parent="1">
          <mxGeometry x="30" y="110" width="140" height="30" as="geometry" />
        </mxCell>
        <mxCell id="hjttsfF6x0lAWdpbckgn-21" value="tourists who want to rent apartment" style="text;html=1;align=center;verticalAlign=middle;whiteSpace=wrap;rounded=0;" vertex="1" parent="1">
          <mxGeometry x="690" y="110" width="140" height="30" as="geometry" />
        </mxCell>
        <mxCell id="hjttsfF6x0lAWdpbckgn-22" value="Consumer" style="shape=umlActor;verticalLabelPosition=bottom;verticalAlign=top;html=1;outlineConnect=0;" vertex="1" parent="1">
          <mxGeometry x="750" y="150" width="40" height="80" as="geometry" />
        </mxCell>
        <mxCell id="hjttsfF6x0lAWdpbckgn-23" value="Market Place" style="text;html=1;align=center;verticalAlign=middle;whiteSpace=wrap;rounded=0;" vertex="1" parent="1">
          <mxGeometry x="390" y="230" width="60" height="30" as="geometry" />
        </mxCell>
        <mxCell id="hjttsfF6x0lAWdpbckgn-24" value="e-commerce&lt;br&gt;&lt;br&gt;trendyol&lt;br&gt;amazon&lt;br&gt;sahibinden&lt;br&gt;rental houses&lt;br&gt;selling houses" style="text;html=1;align=center;verticalAlign=middle;whiteSpace=wrap;rounded=0;" vertex="1" parent="1">
          <mxGeometry x="322.5" y="420" width="195" height="100" as="geometry" />
        </mxCell>
        <mxCell id="hjttsfF6x0lAWdpbckgn-25" value="goal is the meet them" style="text;html=1;align=center;verticalAlign=middle;whiteSpace=wrap;rounded=0;" vertex="1" parent="1">
          <mxGeometry x="390" y="160" width="60" height="30" as="geometry" />
        </mxCell>
        <mxCell id="hjttsfF6x0lAWdpbckgn-26" value="very new" style="text;html=1;align=center;verticalAlign=middle;whiteSpace=wrap;rounded=0;" vertex="1" parent="1">
          <mxGeometry x="140" y="190" width="60" height="30" as="geometry" />
        </mxCell>
        <mxCell id="hjttsfF6x0lAWdpbckgn-28" value="cok yuksek qiymet" style="text;html=1;align=center;verticalAlign=middle;whiteSpace=wrap;rounded=0;" vertex="1" parent="1">
          <mxGeometry x="230" y="150" width="60" height="30" as="geometry" />
        </mxCell>
        <mxCell id="hjttsfF6x0lAWdpbckgn-29" value="cok dusuk qiymet" style="text;html=1;align=center;verticalAlign=middle;whiteSpace=wrap;rounded=0;" vertex="1" parent="1">
          <mxGeometry x="230" y="220" width="60" height="30" as="geometry" />
        </mxCell>
        <mxCell id="hjttsfF6x0lAWdpbckgn-89" style="edgeStyle=orthogonalEdgeStyle;rounded=0;orthogonalLoop=1;jettySize=auto;html=1;" edge="1" parent="1" source="hjttsfF6x0lAWdpbckgn-31" target="hjttsfF6x0lAWdpbckgn-33">
          <mxGeometry relative="1" as="geometry" />
        </mxCell>
        <mxCell id="hjttsfF6x0lAWdpbckgn-31" value="cok yuksek qiymet" style="text;html=1;align=center;verticalAlign=middle;whiteSpace=wrap;rounded=0;fillColor=#f8cecc;strokeColor=#b85450;" vertex="1" parent="1">
          <mxGeometry x="70" y="555" width="60" height="65" as="geometry" />
        </mxCell>
        <mxCell id="hjttsfF6x0lAWdpbckgn-102" style="edgeStyle=orthogonalEdgeStyle;rounded=0;orthogonalLoop=1;jettySize=auto;html=1;" edge="1" parent="1" source="hjttsfF6x0lAWdpbckgn-32" target="hjttsfF6x0lAWdpbckgn-34">
          <mxGeometry relative="1" as="geometry" />
        </mxCell>
        <mxCell id="hjttsfF6x0lAWdpbckgn-32" value="cok dusuk qiymet" style="text;html=1;align=center;verticalAlign=middle;whiteSpace=wrap;rounded=0;fillColor=#d5e8d4;strokeColor=#82b366;" vertex="1" parent="1">
          <mxGeometry x="220" y="555" width="60" height="65" as="geometry" />
        </mxCell>
        <mxCell id="hjttsfF6x0lAWdpbckgn-33" value="piyasayi yukseliyor&lt;br&gt;arttiriyor" style="text;html=1;align=center;verticalAlign=middle;whiteSpace=wrap;rounded=0;" vertex="1" parent="1">
          <mxGeometry x="70" y="650" width="60" height="60" as="geometry" />
        </mxCell>
        <mxCell id="hjttsfF6x0lAWdpbckgn-34" value="piyasayi dusuruyorsunuz" style="text;html=1;align=center;verticalAlign=middle;whiteSpace=wrap;rounded=0;" vertex="1" parent="1">
          <mxGeometry x="220" y="650" width="60" height="60" as="geometry" />
        </mxCell>
        <mxCell id="hjttsfF6x0lAWdpbckgn-41" style="edgeStyle=orthogonalEdgeStyle;rounded=0;orthogonalLoop=1;jettySize=auto;html=1;" edge="1" parent="1" source="hjttsfF6x0lAWdpbckgn-39" target="hjttsfF6x0lAWdpbckgn-40">
          <mxGeometry relative="1" as="geometry" />
        </mxCell>
        <mxCell id="hjttsfF6x0lAWdpbckgn-54" value="HOTEL" style="edgeStyle=orthogonalEdgeStyle;rounded=0;orthogonalLoop=1;jettySize=auto;html=1;" edge="1" parent="1" source="hjttsfF6x0lAWdpbckgn-39" target="hjttsfF6x0lAWdpbckgn-53">
          <mxGeometry relative="1" as="geometry">
            <Array as="points">
              <mxPoint x="110" y="990" />
            </Array>
          </mxGeometry>
        </mxCell>
        <mxCell id="hjttsfF6x0lAWdpbckgn-39" value="consumer" style="shape=umlActor;verticalLabelPosition=bottom;verticalAlign=top;html=1;outlineConnect=0;" vertex="1" parent="1">
          <mxGeometry x="95" y="780" width="30" height="60" as="geometry" />
        </mxCell>
        <mxCell id="hjttsfF6x0lAWdpbckgn-40" value="Baku?" style="text;html=1;align=center;verticalAlign=middle;whiteSpace=wrap;rounded=0;" vertex="1" parent="1">
          <mxGeometry x="190" y="795" width="60" height="30" as="geometry" />
        </mxCell>
        <mxCell id="hjttsfF6x0lAWdpbckgn-44" value="AirBnb" style="image;points=[];aspect=fixed;html=1;align=center;shadow=0;dashed=0;image=img/lib/allied_telesis/buildings/Large_Building.svg;" vertex="1" parent="1">
          <mxGeometry x="360" y="772.5" width="75" height="75" as="geometry" />
        </mxCell>
        <mxCell id="hjttsfF6x0lAWdpbckgn-45" style="edgeStyle=orthogonalEdgeStyle;rounded=0;orthogonalLoop=1;jettySize=auto;html=1;entryX=-0.045;entryY=0.513;entryDx=0;entryDy=0;entryPerimeter=0;" edge="1" parent="1" source="hjttsfF6x0lAWdpbckgn-40" target="hjttsfF6x0lAWdpbckgn-44">
          <mxGeometry relative="1" as="geometry" />
        </mxCell>
        <mxCell id="hjttsfF6x0lAWdpbckgn-46" value="1200 manat/night" style="text;html=1;align=center;verticalAlign=middle;whiteSpace=wrap;rounded=0;" vertex="1" parent="1">
          <mxGeometry x="490" y="773" width="60" height="30" as="geometry" />
        </mxCell>
        <mxCell id="hjttsfF6x0lAWdpbckgn-47" value="3.5manat/night" style="text;html=1;align=center;verticalAlign=middle;whiteSpace=wrap;rounded=0;" vertex="1" parent="1">
          <mxGeometry x="500" y="870" width="60" height="30" as="geometry" />
        </mxCell>
        <mxCell id="hjttsfF6x0lAWdpbckgn-48" value="100manat/night" style="text;html=1;align=center;verticalAlign=middle;whiteSpace=wrap;rounded=0;" vertex="1" parent="1">
          <mxGeometry x="500" y="810" width="60" height="30" as="geometry" />
        </mxCell>
        <mxCell id="hjttsfF6x0lAWdpbckgn-49" value="7manat/night" style="text;html=1;align=center;verticalAlign=middle;whiteSpace=wrap;rounded=0;" vertex="1" parent="1">
          <mxGeometry x="500" y="840" width="60" height="30" as="geometry" />
        </mxCell>
        <mxCell id="hjttsfF6x0lAWdpbckgn-50" value="" style="endArrow=classic;startArrow=classic;html=1;rounded=0;" edge="1" parent="1">
          <mxGeometry width="50" height="50" relative="1" as="geometry">
            <mxPoint x="620" y="890" as="sourcePoint" />
            <mxPoint x="620" y="780" as="targetPoint" />
          </mxGeometry>
        </mxCell>
        <mxCell id="hjttsfF6x0lAWdpbckgn-51" value="standard deviation" style="text;html=1;align=center;verticalAlign=middle;whiteSpace=wrap;rounded=0;" vertex="1" parent="1">
          <mxGeometry x="630" y="825" width="60" height="30" as="geometry" />
        </mxCell>
        <mxCell id="hjttsfF6x0lAWdpbckgn-52" value="kandirma?&lt;br&gt;evin bir eksigi mi var?&lt;br&gt;baska ev mi?" style="text;html=1;align=center;verticalAlign=middle;whiteSpace=wrap;rounded=0;" vertex="1" parent="1">
          <mxGeometry x="720" y="730" width="140" height="60" as="geometry" />
        </mxCell>
        <mxCell id="hjttsfF6x0lAWdpbckgn-53" value="" style="sketch=0;outlineConnect=0;fontColor=#232F3E;gradientColor=none;fillColor=#232F3D;strokeColor=none;dashed=0;verticalLabelPosition=bottom;verticalAlign=top;align=center;html=1;fontSize=12;fontStyle=0;aspect=fixed;pointerEvents=1;shape=mxgraph.aws4.office_building;" vertex="1" parent="1">
          <mxGeometry x="372.5" y="950" width="50" height="78" as="geometry" />
        </mxCell>
        <mxCell id="hjttsfF6x0lAWdpbckgn-55" value="%10 commission&lt;br&gt;&lt;br&gt;0 x %10 = 0" style="text;html=1;align=center;verticalAlign=middle;whiteSpace=wrap;rounded=0;" vertex="1" parent="1">
          <mxGeometry x="330" y="730" width="147" height="40" as="geometry" />
        </mxCell>
        <mxCell id="hjttsfF6x0lAWdpbckgn-56" value="AirBnb" style="image;points=[];aspect=fixed;html=1;align=center;shadow=0;dashed=0;image=img/lib/allied_telesis/buildings/Large_Building.svg;" vertex="1" parent="1">
          <mxGeometry x="372.5" y="1210" width="75" height="75" as="geometry" />
        </mxCell>
        <mxCell id="hjttsfF6x0lAWdpbckgn-58" value="150 manat/night" style="edgeStyle=orthogonalEdgeStyle;rounded=0;orthogonalLoop=1;jettySize=auto;html=1;" edge="1" parent="1" source="hjttsfF6x0lAWdpbckgn-57" target="hjttsfF6x0lAWdpbckgn-56">
          <mxGeometry relative="1" as="geometry" />
        </mxCell>
        <mxCell id="hjttsfF6x0lAWdpbckgn-57" value="House Owner" style="shape=umlActor;verticalLabelPosition=bottom;verticalAlign=top;html=1;outlineConnect=0;" vertex="1" parent="1">
          <mxGeometry x="600" y="1230" width="30" height="60" as="geometry" />
        </mxCell>
        <mxCell id="hjttsfF6x0lAWdpbckgn-59" value="I dont care, it is your apartment" style="text;html=1;align=center;verticalAlign=middle;whiteSpace=wrap;rounded=0;" vertex="1" parent="1">
          <mxGeometry x="380" y="1330" width="60" height="30" as="geometry" />
        </mxCell>
        <mxCell id="hjttsfF6x0lAWdpbckgn-60" value="House Owner" style="shape=umlActor;verticalLabelPosition=bottom;verticalAlign=top;html=1;outlineConnect=0;" vertex="1" parent="1">
          <mxGeometry x="300" y="1315" width="30" height="60" as="geometry" />
        </mxCell>
        <mxCell id="hjttsfF6x0lAWdpbckgn-61" value="30" style="text;html=1;align=center;verticalAlign=middle;whiteSpace=wrap;rounded=0;" vertex="1" parent="1">
          <mxGeometry x="220" y="1320" width="60" height="30" as="geometry" />
        </mxCell>
        <mxCell id="hjttsfF6x0lAWdpbckgn-62" value="House Owner" style="shape=umlActor;verticalLabelPosition=bottom;verticalAlign=top;html=1;outlineConnect=0;" vertex="1" parent="1">
          <mxGeometry x="310" y="1325" width="30" height="60" as="geometry" />
        </mxCell>
        <mxCell id="hjttsfF6x0lAWdpbckgn-63" value="House Owner" style="shape=umlActor;verticalLabelPosition=bottom;verticalAlign=top;html=1;outlineConnect=0;" vertex="1" parent="1">
          <mxGeometry x="320" y="1335" width="30" height="60" as="geometry" />
        </mxCell>
        <mxCell id="hjttsfF6x0lAWdpbckgn-64" value="House Owner" style="shape=umlActor;verticalLabelPosition=bottom;verticalAlign=top;html=1;outlineConnect=0;" vertex="1" parent="1">
          <mxGeometry x="330" y="1345" width="30" height="60" as="geometry" />
        </mxCell>
        <mxCell id="hjttsfF6x0lAWdpbckgn-65" value="House Owner" style="shape=umlActor;verticalLabelPosition=bottom;verticalAlign=top;html=1;outlineConnect=0;" vertex="1" parent="1">
          <mxGeometry x="340" y="1355" width="30" height="60" as="geometry" />
        </mxCell>
        <mxCell id="hjttsfF6x0lAWdpbckgn-66" value="20" style="text;html=1;align=center;verticalAlign=middle;whiteSpace=wrap;rounded=0;" vertex="1" parent="1">
          <mxGeometry x="220" y="1335" width="60" height="30" as="geometry" />
        </mxCell>
        <mxCell id="hjttsfF6x0lAWdpbckgn-67" value="35" style="text;html=1;align=center;verticalAlign=middle;whiteSpace=wrap;rounded=0;" vertex="1" parent="1">
          <mxGeometry x="220" y="1355" width="60" height="30" as="geometry" />
        </mxCell>
        <mxCell id="hjttsfF6x0lAWdpbckgn-68" value="37.5" style="text;html=1;align=center;verticalAlign=middle;whiteSpace=wrap;rounded=0;" vertex="1" parent="1">
          <mxGeometry x="220" y="1385" width="60" height="30" as="geometry" />
        </mxCell>
        <mxCell id="hjttsfF6x0lAWdpbckgn-69" value="40" style="text;html=1;align=center;verticalAlign=middle;whiteSpace=wrap;rounded=0;" vertex="1" parent="1">
          <mxGeometry x="220" y="1405" width="60" height="30" as="geometry" />
        </mxCell>
        <mxCell id="hjttsfF6x0lAWdpbckgn-70" value="27.5" style="text;html=1;align=center;verticalAlign=middle;whiteSpace=wrap;rounded=0;" vertex="1" parent="1">
          <mxGeometry x="220" y="1295" width="60" height="30" as="geometry" />
        </mxCell>
        <mxCell id="hjttsfF6x0lAWdpbckgn-87" style="edgeStyle=orthogonalEdgeStyle;rounded=0;orthogonalLoop=1;jettySize=auto;html=1;" edge="1" parent="1" source="hjttsfF6x0lAWdpbckgn-71">
          <mxGeometry relative="1" as="geometry">
            <mxPoint x="940" y="1440" as="targetPoint" />
          </mxGeometry>
        </mxCell>
        <mxCell id="hjttsfF6x0lAWdpbckgn-71" value="Tourist" style="shape=umlActor;verticalLabelPosition=bottom;verticalAlign=top;html=1;outlineConnect=0;fillColor=#f8cecc;strokeColor=#b85450;" vertex="1" parent="1">
          <mxGeometry x="790" y="1510" width="30" height="60" as="geometry" />
        </mxCell>
        <mxCell id="hjttsfF6x0lAWdpbckgn-72" value="Tourist" style="shape=umlActor;verticalLabelPosition=bottom;verticalAlign=top;html=1;outlineConnect=0;" vertex="1" parent="1">
          <mxGeometry x="150" y="1215" width="30" height="60" as="geometry" />
        </mxCell>
        <mxCell id="hjttsfF6x0lAWdpbckgn-85" style="edgeStyle=orthogonalEdgeStyle;rounded=0;orthogonalLoop=1;jettySize=auto;html=1;" edge="1" parent="1" source="hjttsfF6x0lAWdpbckgn-73" target="hjttsfF6x0lAWdpbckgn-69">
          <mxGeometry relative="1" as="geometry" />
        </mxCell>
        <mxCell id="hjttsfF6x0lAWdpbckgn-73" value="Tourist" style="shape=umlActor;verticalLabelPosition=bottom;verticalAlign=top;html=1;outlineConnect=0;" vertex="1" parent="1">
          <mxGeometry x="130" y="1450" width="30" height="60" as="geometry" />
        </mxCell>
        <mxCell id="hjttsfF6x0lAWdpbckgn-78" style="edgeStyle=orthogonalEdgeStyle;rounded=0;orthogonalLoop=1;jettySize=auto;html=1;" edge="1" parent="1" source="hjttsfF6x0lAWdpbckgn-74" target="hjttsfF6x0lAWdpbckgn-68">
          <mxGeometry relative="1" as="geometry" />
        </mxCell>
        <mxCell id="hjttsfF6x0lAWdpbckgn-74" value="Tourist" style="shape=umlActor;verticalLabelPosition=bottom;verticalAlign=top;html=1;outlineConnect=0;" vertex="1" parent="1">
          <mxGeometry x="80" y="1345" width="30" height="60" as="geometry" />
        </mxCell>
        <mxCell id="hjttsfF6x0lAWdpbckgn-75" value="Tourist" style="shape=umlActor;verticalLabelPosition=bottom;verticalAlign=top;html=1;outlineConnect=0;" vertex="1" parent="1">
          <mxGeometry x="105" y="1265" width="30" height="60" as="geometry" />
        </mxCell>
        <mxCell id="hjttsfF6x0lAWdpbckgn-77" style="edgeStyle=orthogonalEdgeStyle;rounded=0;orthogonalLoop=1;jettySize=auto;html=1;" edge="1" parent="1" source="hjttsfF6x0lAWdpbckgn-76" target="hjttsfF6x0lAWdpbckgn-70">
          <mxGeometry relative="1" as="geometry" />
        </mxCell>
        <mxCell id="hjttsfF6x0lAWdpbckgn-76" value="Tourist" style="shape=umlActor;verticalLabelPosition=bottom;verticalAlign=top;html=1;outlineConnect=0;" vertex="1" parent="1">
          <mxGeometry x="115" y="1275" width="30" height="60" as="geometry" />
        </mxCell>
        <mxCell id="hjttsfF6x0lAWdpbckgn-79" value="" style="endArrow=none;dashed=1;html=1;dashPattern=1 3;strokeWidth=2;rounded=0;" edge="1" parent="1">
          <mxGeometry width="50" height="50" relative="1" as="geometry">
            <mxPoint x="510" y="1320" as="sourcePoint" />
            <mxPoint x="590" y="1200" as="targetPoint" />
          </mxGeometry>
        </mxCell>
        <mxCell id="hjttsfF6x0lAWdpbckgn-80" value="" style="endArrow=none;dashed=1;html=1;dashPattern=1 3;strokeWidth=2;rounded=0;" edge="1" parent="1">
          <mxGeometry width="50" height="50" relative="1" as="geometry">
            <mxPoint x="490" y="1220" as="sourcePoint" />
            <mxPoint x="590" y="1330" as="targetPoint" />
          </mxGeometry>
        </mxCell>
        <mxCell id="hjttsfF6x0lAWdpbckgn-81" value="gets angry" style="text;html=1;align=center;verticalAlign=middle;whiteSpace=wrap;rounded=0;" vertex="1" parent="1">
          <mxGeometry x="690" y="1240" width="60" height="30" as="geometry" />
        </mxCell>
        <mxCell id="hjttsfF6x0lAWdpbckgn-84" style="edgeStyle=orthogonalEdgeStyle;rounded=0;orthogonalLoop=1;jettySize=auto;html=1;" edge="1" parent="1" source="hjttsfF6x0lAWdpbckgn-82" target="hjttsfF6x0lAWdpbckgn-83">
          <mxGeometry relative="1" as="geometry" />
        </mxCell>
        <mxCell id="hjttsfF6x0lAWdpbckgn-82" value="House Owner" style="shape=umlActor;verticalLabelPosition=bottom;verticalAlign=top;html=1;outlineConnect=0;" vertex="1" parent="1">
          <mxGeometry x="750" y="1355" width="30" height="60" as="geometry" />
        </mxCell>
        <mxCell id="hjttsfF6x0lAWdpbckgn-83" value="MyBNB" style="image;points=[];aspect=fixed;html=1;align=center;shadow=0;dashed=0;image=img/lib/allied_telesis/buildings/Large_Building.svg;" vertex="1" parent="1">
          <mxGeometry x="900" y="1360" width="75" height="75" as="geometry" />
        </mxCell>
        <mxCell id="hjttsfF6x0lAWdpbckgn-86" style="edgeStyle=orthogonalEdgeStyle;rounded=0;orthogonalLoop=1;jettySize=auto;html=1;entryX=0.163;entryY=0.067;entryDx=0;entryDy=0;entryPerimeter=0;" edge="1" parent="1" source="hjttsfF6x0lAWdpbckgn-72" target="hjttsfF6x0lAWdpbckgn-66">
          <mxGeometry relative="1" as="geometry" />
        </mxCell>
        <mxCell id="hjttsfF6x0lAWdpbckgn-90" value="house owner" style="shape=umlActor;verticalLabelPosition=bottom;verticalAlign=top;html=1;outlineConnect=0;" vertex="1" parent="1">
          <mxGeometry x="785" y="980" width="30" height="60" as="geometry" />
        </mxCell>
        <mxCell id="hjttsfF6x0lAWdpbckgn-91" value="house owner" style="shape=umlActor;verticalLabelPosition=bottom;verticalAlign=top;html=1;outlineConnect=0;" vertex="1" parent="1">
          <mxGeometry x="922.5" y="950" width="30" height="60" as="geometry" />
        </mxCell>
        <mxCell id="hjttsfF6x0lAWdpbckgn-92" value="house owner" style="shape=umlActor;verticalLabelPosition=bottom;verticalAlign=top;html=1;outlineConnect=0;" vertex="1" parent="1">
          <mxGeometry x="945" y="980" width="30" height="60" as="geometry" />
        </mxCell>
        <mxCell id="hjttsfF6x0lAWdpbckgn-93" value="house owner" style="shape=umlActor;verticalLabelPosition=bottom;verticalAlign=top;html=1;outlineConnect=0;" vertex="1" parent="1">
          <mxGeometry x="960" y="1010" width="30" height="60" as="geometry" />
        </mxCell>
        <mxCell id="hjttsfF6x0lAWdpbckgn-94" value="house owner" style="shape=umlActor;verticalLabelPosition=bottom;verticalAlign=top;html=1;outlineConnect=0;" vertex="1" parent="1">
          <mxGeometry x="975" y="1028" width="30" height="60" as="geometry" />
        </mxCell>
        <mxCell id="hjttsfF6x0lAWdpbckgn-95" value="20" style="text;html=1;align=center;verticalAlign=middle;whiteSpace=wrap;rounded=0;" vertex="1" parent="1">
          <mxGeometry x="720" y="1005" width="60" height="30" as="geometry" />
        </mxCell>
        <mxCell id="hjttsfF6x0lAWdpbckgn-96" value="45" style="text;html=1;align=center;verticalAlign=middle;whiteSpace=wrap;rounded=0;" vertex="1" parent="1">
          <mxGeometry x="862.5" y="974" width="60" height="30" as="geometry" />
        </mxCell>
        <mxCell id="hjttsfF6x0lAWdpbckgn-97" value="45" style="text;html=1;align=center;verticalAlign=middle;whiteSpace=wrap;rounded=0;" vertex="1" parent="1">
          <mxGeometry x="862.5" y="1005" width="60" height="30" as="geometry" />
        </mxCell>
        <mxCell id="hjttsfF6x0lAWdpbckgn-98" value="50" style="text;html=1;align=center;verticalAlign=middle;whiteSpace=wrap;rounded=0;" vertex="1" parent="1">
          <mxGeometry x="880" y="1040" width="60" height="30" as="geometry" />
        </mxCell>
        <mxCell id="hjttsfF6x0lAWdpbckgn-99" value="40" style="text;html=1;align=center;verticalAlign=middle;whiteSpace=wrap;rounded=0;" vertex="1" parent="1">
          <mxGeometry x="892.5" y="1070" width="60" height="30" as="geometry" />
        </mxCell>
        <mxCell id="hjttsfF6x0lAWdpbckgn-100" value="40" style="text;html=1;align=center;verticalAlign=middle;whiteSpace=wrap;rounded=0;" vertex="1" parent="1">
          <mxGeometry x="900" y="1088" width="60" height="30" as="geometry" />
        </mxCell>
        <mxCell id="hjttsfF6x0lAWdpbckgn-101" value="rival company" style="text;html=1;align=center;verticalAlign=middle;whiteSpace=wrap;rounded=0;" vertex="1" parent="1">
          <mxGeometry x="990" y="1395" width="60" height="30" as="geometry" />
        </mxCell>
        <mxCell id="hjttsfF6x0lAWdpbckgn-104" style="edgeStyle=orthogonalEdgeStyle;rounded=0;orthogonalLoop=1;jettySize=auto;html=1;" edge="1" parent="1" source="hjttsfF6x0lAWdpbckgn-103" target="hjttsfF6x0lAWdpbckgn-95">
          <mxGeometry relative="1" as="geometry" />
        </mxCell>
        <mxCell id="hjttsfF6x0lAWdpbckgn-103" value="tourist" style="shape=umlActor;verticalLabelPosition=bottom;verticalAlign=top;html=1;outlineConnect=0;" vertex="1" parent="1">
          <mxGeometry x="600" y="1035" width="30" height="60" as="geometry" />
        </mxCell>
        <mxCell id="hjttsfF6x0lAWdpbckgn-105" value="very low price" style="text;html=1;align=center;verticalAlign=middle;whiteSpace=wrap;rounded=0;" vertex="1" parent="1">
          <mxGeometry x="730" y="1100" width="60" height="30" as="geometry" />
        </mxCell>
        <mxCell id="hjttsfF6x0lAWdpbckgn-106" style="edgeStyle=orthogonalEdgeStyle;rounded=0;orthogonalLoop=1;jettySize=auto;html=1;entryX=0.457;entryY=0.02;entryDx=0;entryDy=0;entryPerimeter=0;" edge="1" parent="1" source="hjttsfF6x0lAWdpbckgn-95" target="hjttsfF6x0lAWdpbckgn-105">
          <mxGeometry relative="1" as="geometry" />
        </mxCell>
        <mxCell id="hjttsfF6x0lAWdpbckgn-107" value="not clean" style="text;html=1;align=center;verticalAlign=middle;whiteSpace=wrap;rounded=0;" vertex="1" parent="1">
          <mxGeometry x="775" y="1070" width="60" height="30" as="geometry" />
        </mxCell>
        <mxCell id="hjttsfF6x0lAWdpbckgn-108" value="dissatisfaction" style="text;html=1;align=center;verticalAlign=middle;whiteSpace=wrap;rounded=0;" vertex="1" parent="1">
          <mxGeometry x="600" y="965" width="60" height="30" as="geometry" />
        </mxCell>
        <mxCell id="hjttsfF6x0lAWdpbckgn-109" value="35&lt;br&gt;+- %25&lt;br&gt;&lt;br&gt;X 350 X&amp;nbsp;" style="text;html=1;align=center;verticalAlign=middle;whiteSpace=wrap;rounded=0;" vertex="1" parent="1">
          <mxGeometry x="510" y="630" width="90" height="50" as="geometry" />
        </mxCell>
        <mxCell id="hjttsfF6x0lAWdpbckgn-110" value="tourist" style="shape=umlActor;verticalLabelPosition=bottom;verticalAlign=top;html=1;outlineConnect=0;" vertex="1" parent="1">
          <mxGeometry x="765" y="585" width="30" height="60" as="geometry" />
        </mxCell>
        <mxCell id="hjttsfF6x0lAWdpbckgn-111" value="Web page" style="rounded=0;whiteSpace=wrap;html=1;" vertex="1" parent="1">
          <mxGeometry x="870" y="585" width="120" height="60" as="geometry" />
        </mxCell>
        <mxCell id="hjttsfF6x0lAWdpbckgn-112" value="" style="endArrow=classic;html=1;rounded=0;" edge="1" parent="1">
          <mxGeometry width="50" height="50" relative="1" as="geometry">
            <mxPoint x="1010" y="590" as="sourcePoint" />
            <mxPoint x="1010" y="650" as="targetPoint" />
          </mxGeometry>
        </mxCell>
        <mxCell id="hjttsfF6x0lAWdpbckgn-113" value="35" style="text;html=1;align=center;verticalAlign=middle;whiteSpace=wrap;rounded=0;" vertex="1" parent="1">
          <mxGeometry x="1020" y="590" width="60" height="30" as="geometry" />
        </mxCell>
        <mxCell id="hjttsfF6x0lAWdpbckgn-114" value="40" style="text;html=1;align=center;verticalAlign=middle;whiteSpace=wrap;rounded=0;" vertex="1" parent="1">
          <mxGeometry x="1020" y="610" width="60" height="30" as="geometry" />
        </mxCell>
        <mxCell id="hjttsfF6x0lAWdpbckgn-115" value="25" style="text;html=1;align=center;verticalAlign=middle;whiteSpace=wrap;rounded=0;" vertex="1" parent="1">
          <mxGeometry x="1020" y="630" width="60" height="30" as="geometry" />
        </mxCell>
        <mxCell id="hjttsfF6x0lAWdpbckgn-116" value="350" style="text;html=1;align=center;verticalAlign=middle;whiteSpace=wrap;rounded=0;" vertex="1" parent="1">
          <mxGeometry x="1020" y="750" width="60" height="30" as="geometry" />
        </mxCell>
        <mxCell id="hjttsfF6x0lAWdpbckgn-117" value="50" style="text;html=1;align=center;verticalAlign=middle;whiteSpace=wrap;rounded=0;" vertex="1" parent="1">
          <mxGeometry x="1020" y="650" width="60" height="30" as="geometry" />
        </mxCell>
        <mxCell id="hjttsfF6x0lAWdpbckgn-118" value="30" style="text;html=1;align=center;verticalAlign=middle;whiteSpace=wrap;rounded=0;" vertex="1" parent="1">
          <mxGeometry x="1020" y="665" width="60" height="30" as="geometry" />
        </mxCell>
        <mxCell id="hjttsfF6x0lAWdpbckgn-119" value="5000" style="text;html=1;align=center;verticalAlign=middle;whiteSpace=wrap;rounded=0;" vertex="1" parent="1">
          <mxGeometry x="1020" y="730" width="60" height="30" as="geometry" />
        </mxCell>
        <mxCell id="hjttsfF6x0lAWdpbckgn-120" value="" style="ellipse;whiteSpace=wrap;html=1;aspect=fixed;" vertex="1" parent="1">
          <mxGeometry x="200" y="1810" width="190" height="190" as="geometry" />
        </mxCell>
        <mxCell id="hjttsfF6x0lAWdpbckgn-122" value="" style="endArrow=none;html=1;rounded=0;" edge="1" parent="1">
          <mxGeometry width="50" height="50" relative="1" as="geometry">
            <mxPoint x="295" y="1910" as="sourcePoint" />
            <mxPoint x="420" y="1790" as="targetPoint" />
          </mxGeometry>
        </mxCell>
        <mxCell id="hjttsfF6x0lAWdpbckgn-123" value="" style="endArrow=none;html=1;rounded=0;" edge="1" parent="1">
          <mxGeometry width="50" height="50" relative="1" as="geometry">
            <mxPoint x="297" y="1910" as="sourcePoint" />
            <mxPoint x="390" y="1810" as="targetPoint" />
          </mxGeometry>
        </mxCell>
        <mxCell id="hjttsfF6x0lAWdpbckgn-124" value="" style="endArrow=none;html=1;rounded=0;" edge="1" parent="1">
          <mxGeometry width="50" height="50" relative="1" as="geometry">
            <mxPoint x="294.71" y="1910" as="sourcePoint" />
            <mxPoint x="400" y="1790" as="targetPoint" />
          </mxGeometry>
        </mxCell>
        <mxCell id="hjttsfF6x0lAWdpbckgn-128" style="edgeStyle=orthogonalEdgeStyle;rounded=0;orthogonalLoop=1;jettySize=auto;html=1;" edge="1" parent="1" source="hjttsfF6x0lAWdpbckgn-125" target="hjttsfF6x0lAWdpbckgn-126">
          <mxGeometry relative="1" as="geometry" />
        </mxCell>
        <mxCell id="hjttsfF6x0lAWdpbckgn-129" style="edgeStyle=orthogonalEdgeStyle;rounded=0;orthogonalLoop=1;jettySize=auto;html=1;" edge="1" parent="1" source="hjttsfF6x0lAWdpbckgn-125" target="hjttsfF6x0lAWdpbckgn-127">
          <mxGeometry relative="1" as="geometry" />
        </mxCell>
        <mxCell id="hjttsfF6x0lAWdpbckgn-125" value="" style="shape=cylinder3;whiteSpace=wrap;html=1;boundedLbl=1;backgroundOutline=1;size=15;" vertex="1" parent="1">
          <mxGeometry x="422.5" y="1820" width="150" height="290" as="geometry" />
        </mxCell>
        <mxCell id="hjttsfF6x0lAWdpbckgn-126" value="UCUZ" style="shape=cylinder3;whiteSpace=wrap;html=1;boundedLbl=1;backgroundOutline=1;size=15;" vertex="1" parent="1">
          <mxGeometry x="685" y="1830" width="150" height="140" as="geometry" />
        </mxCell>
        <mxCell id="hjttsfF6x0lAWdpbckgn-127" value="BAHALI" style="shape=cylinder3;whiteSpace=wrap;html=1;boundedLbl=1;backgroundOutline=1;size=15;" vertex="1" parent="1">
          <mxGeometry x="685" y="1980" width="150" height="140" as="geometry" />
        </mxCell>
        <mxCell id="hjttsfF6x0lAWdpbckgn-130" value="Text" style="text;html=1;align=center;verticalAlign=middle;whiteSpace=wrap;rounded=0;" vertex="1" parent="1">
          <mxGeometry x="900" y="1870" width="60" height="30" as="geometry" />
        </mxCell>
        <mxCell id="hjttsfF6x0lAWdpbckgn-131" value="Text" style="text;html=1;align=center;verticalAlign=middle;whiteSpace=wrap;rounded=0;" vertex="1" parent="1">
          <mxGeometry x="900" y="1870" width="60" height="30" as="geometry" />
        </mxCell>
        <mxCell id="hjttsfF6x0lAWdpbckgn-132" value="Text" style="text;html=1;align=center;verticalAlign=middle;whiteSpace=wrap;rounded=0;" vertex="1" parent="1">
          <mxGeometry x="910" y="1880" width="60" height="30" as="geometry" />
        </mxCell>
        <mxCell id="hjttsfF6x0lAWdpbckgn-133" value="Text" style="text;html=1;align=center;verticalAlign=middle;whiteSpace=wrap;rounded=0;" vertex="1" parent="1">
          <mxGeometry x="920" y="1890" width="60" height="30" as="geometry" />
        </mxCell>
        <mxCell id="hjttsfF6x0lAWdpbckgn-134" value="Text" style="text;html=1;align=center;verticalAlign=middle;whiteSpace=wrap;rounded=0;" vertex="1" parent="1">
          <mxGeometry x="930" y="1900" width="60" height="30" as="geometry" />
        </mxCell>
        <mxCell id="hjttsfF6x0lAWdpbckgn-135" value="Text" style="text;html=1;align=center;verticalAlign=middle;whiteSpace=wrap;rounded=0;" vertex="1" parent="1">
          <mxGeometry x="940" y="1910" width="60" height="30" as="geometry" />
        </mxCell>
        <mxCell id="hjttsfF6x0lAWdpbckgn-136" value="Text" style="text;html=1;align=center;verticalAlign=middle;whiteSpace=wrap;rounded=0;" vertex="1" parent="1">
          <mxGeometry x="950" y="1920" width="60" height="30" as="geometry" />
        </mxCell>
        <mxCell id="hjttsfF6x0lAWdpbckgn-137" value="Text" style="text;html=1;align=center;verticalAlign=middle;whiteSpace=wrap;rounded=0;" vertex="1" parent="1">
          <mxGeometry x="960" y="1930" width="60" height="30" as="geometry" />
        </mxCell>
        <mxCell id="hjttsfF6x0lAWdpbckgn-138" value="Text" style="text;html=1;align=center;verticalAlign=middle;whiteSpace=wrap;rounded=0;" vertex="1" parent="1">
          <mxGeometry x="945" y="1885" width="60" height="30" as="geometry" />
        </mxCell>
        <mxCell id="hjttsfF6x0lAWdpbckgn-139" value="Text" style="text;html=1;align=center;verticalAlign=middle;whiteSpace=wrap;rounded=0;" vertex="1" parent="1">
          <mxGeometry x="885" y="2030" width="60" height="30" as="geometry" />
        </mxCell>
        <mxCell id="hjttsfF6x0lAWdpbckgn-140" value="Text" style="text;html=1;align=center;verticalAlign=middle;whiteSpace=wrap;rounded=0;" vertex="1" parent="1">
          <mxGeometry x="895" y="2040" width="60" height="30" as="geometry" />
        </mxCell>
        <mxCell id="hjttsfF6x0lAWdpbckgn-141" value="Text" style="text;html=1;align=center;verticalAlign=middle;whiteSpace=wrap;rounded=0;" vertex="1" parent="1">
          <mxGeometry x="905" y="2050" width="60" height="30" as="geometry" />
        </mxCell>
        <mxCell id="hjttsfF6x0lAWdpbckgn-142" value="Text" style="text;html=1;align=center;verticalAlign=middle;whiteSpace=wrap;rounded=0;" vertex="1" parent="1">
          <mxGeometry x="915" y="2060" width="60" height="30" as="geometry" />
        </mxCell>
        <mxCell id="hjttsfF6x0lAWdpbckgn-143" value="Text" style="text;html=1;align=center;verticalAlign=middle;whiteSpace=wrap;rounded=0;" vertex="1" parent="1">
          <mxGeometry x="925" y="2070" width="60" height="30" as="geometry" />
        </mxCell>
        <mxCell id="hjttsfF6x0lAWdpbckgn-144" value="Text" style="text;html=1;align=center;verticalAlign=middle;whiteSpace=wrap;rounded=0;" vertex="1" parent="1">
          <mxGeometry x="935" y="2080" width="60" height="30" as="geometry" />
        </mxCell>
        <mxCell id="hjttsfF6x0lAWdpbckgn-145" value="Text" style="text;html=1;align=center;verticalAlign=middle;whiteSpace=wrap;rounded=0;" vertex="1" parent="1">
          <mxGeometry x="945" y="2090" width="60" height="30" as="geometry" />
        </mxCell>
        <mxCell id="hjttsfF6x0lAWdpbckgn-146" value="Text" style="text;html=1;align=center;verticalAlign=middle;whiteSpace=wrap;rounded=0;" vertex="1" parent="1">
          <mxGeometry x="955" y="2100" width="60" height="30" as="geometry" />
        </mxCell>
        <mxCell id="hjttsfF6x0lAWdpbckgn-147" value="UCUZ&lt;br&gt;MOST FREQUENT" style="text;html=1;align=center;verticalAlign=middle;whiteSpace=wrap;rounded=0;" vertex="1" parent="1">
          <mxGeometry x="1100" y="1900" width="60" height="30" as="geometry" />
        </mxCell>
        <mxCell id="hjttsfF6x0lAWdpbckgn-148" value="BAHALI&lt;br&gt;MOST FREQUENT" style="text;html=1;align=center;verticalAlign=middle;whiteSpace=wrap;rounded=0;" vertex="1" parent="1">
          <mxGeometry x="1100" y="2040" width="60" height="30" as="geometry" />
        </mxCell>
        <mxCell id="hjttsfF6x0lAWdpbckgn-149" value="" style="endArrow=none;dashed=1;html=1;dashPattern=1 3;strokeWidth=2;rounded=0;" edge="1" parent="1">
          <mxGeometry width="50" height="50" relative="1" as="geometry">
            <mxPoint x="670" y="1970" as="sourcePoint" />
            <mxPoint x="940" y="1970" as="targetPoint" />
          </mxGeometry>
        </mxCell>
        <mxCell id="hjttsfF6x0lAWdpbckgn-154" style="edgeStyle=orthogonalEdgeStyle;rounded=0;orthogonalLoop=1;jettySize=auto;html=1;" edge="1" parent="1" source="hjttsfF6x0lAWdpbckgn-151" target="hjttsfF6x0lAWdpbckgn-147">
          <mxGeometry relative="1" as="geometry" />
        </mxCell>
        <mxCell id="hjttsfF6x0lAWdpbckgn-151" value="private" style="text;html=1;align=center;verticalAlign=middle;whiteSpace=wrap;rounded=0;" vertex="1" parent="1">
          <mxGeometry x="1260" y="1890" width="60" height="30" as="geometry" />
        </mxCell>
        <mxCell id="hjttsfF6x0lAWdpbckgn-152" value="luxary" style="text;html=1;align=center;verticalAlign=middle;whiteSpace=wrap;rounded=0;" vertex="1" parent="1">
          <mxGeometry x="1260" y="2040" width="60" height="30" as="geometry" />
        </mxCell>
        <mxCell id="hjttsfF6x0lAWdpbckgn-153" style="edgeStyle=orthogonalEdgeStyle;rounded=0;orthogonalLoop=1;jettySize=auto;html=1;entryX=1.005;entryY=0.39;entryDx=0;entryDy=0;entryPerimeter=0;" edge="1" parent="1" source="hjttsfF6x0lAWdpbckgn-152" target="hjttsfF6x0lAWdpbckgn-148">
          <mxGeometry relative="1" as="geometry" />
        </mxCell>
        <mxCell id="hjttsfF6x0lAWdpbckgn-155" value="0.12 correlation" style="text;html=1;align=center;verticalAlign=middle;whiteSpace=wrap;rounded=0;" vertex="1" parent="1">
          <mxGeometry x="1350" y="2060" width="60" height="30" as="geometry" />
        </mxCell>
        <mxCell id="hjttsfF6x0lAWdpbckgn-156" value="0.10 correlation" style="text;html=1;align=center;verticalAlign=middle;whiteSpace=wrap;rounded=0;" vertex="1" parent="1">
          <mxGeometry x="1350" y="1890" width="60" height="30" as="geometry" />
        </mxCell>
      </root>
    </mxGraphModel>
  </diagram>
</mxfile>
